<?xml version="1.0" encoding="utf-8"?>
<!-- Generator: Adobe Illustrator 16.0.0, SVG Export Plug-In . SVG Version: 6.00 Build 0)  -->
<!DOCTYPE svg PUBLIC "-//W3C//DTD SVG 1.1//EN" "http://www.w3.org/Graphics/SVG/1.1/DTD/svg11.dtd">
<svg version="1.1" id="Layer_1" xmlns="http://www.w3.org/2000/svg" xmlns:xlink="http://www.w3.org/1999/xlink" x="0px" y="0px"
	 width="200px" height="100px" viewBox="0 0 200 100" enable-background="new 0 0 200 100" xml:space="preserve">
<g>
	<path fill="#BFBC3D" d="M11.75,44.979c1.637-2.497,5.251-5.166,11.019-5.166c11.708,0,14.463,7.49,14.463,14.982v21.518
		c0,2.587-2.065,4.477-4.647,4.477c-2.757,0-4.649-1.89-4.649-4.477V56.515c0-4.908-1.98-8.265-7.575-8.265
		c-6.458,0-8.61,3.788-8.61,8.869v19.193c0,2.587-1.98,4.477-4.647,4.477c-2.669,0-4.65-1.89-4.65-4.477V23.457
		c0-2.582,2.065-4.649,4.65-4.649c2.582,0,4.647,2.068,4.647,4.649V44.979z"/>
	<path fill="#BFBC3D" d="M62.28,39.813c14.548,0,17.216,11.192,17.216,17.13c0,3.186,0,6.889-5.251,6.889H52.98
		c0,6.196,4.392,9.041,10.074,9.041c3.788,0,6.455-1.296,8.522-2.67c0.945-0.604,1.635-0.949,2.755-0.949
		c2.239,0,4.046,1.808,4.046,4.048c0,1.379-0.689,2.494-1.464,3.186c-1.464,1.379-6.026,4.735-13.859,4.735
		c-11.967,0-19.372-6.459-19.372-20.835C43.683,47.217,50.571,39.813,62.28,39.813z M53.238,56.086h17.048
		c0-4.221-2.412-8.352-8.006-8.352C57.286,47.734,53.669,50.574,53.238,56.086z"/>
	<path fill="#BFBC3D" d="M95.676,23.457v47.175c0,1.033,1.033,1.55,1.637,1.55c2.409,0,4.304,1.895,4.304,4.306
		c0,2.412-1.895,4.302-4.304,4.302c-6.715,0-10.934-3.785-10.934-11.019V23.457c0-2.582,2.066-4.649,4.647-4.649
		C93.611,18.807,95.676,20.875,95.676,23.457z"/>
	<path fill="#BFBC3D" d="M106.433,30.257c0-3.96,1.982-5.683,5.51-5.683c3.615,0,5.598,1.722,5.598,5.683
		c0,3.356-1.982,5.424-5.598,5.424C108.415,35.682,106.433,33.614,106.433,30.257z M116.595,76.142c0,2.582-2.07,4.647-4.652,4.647
		s-4.647-2.065-4.647-4.647V44.979c0-2.584,2.065-4.65,4.647-4.65s4.652,2.065,4.652,4.65V76.142z"/>
	<path fill="#BFBC3D" d="M142.248,81.223c-11.623,0-18.857-6.63-18.857-20.664c0-14.116,7.234-20.746,18.857-20.746
		c11.618,0,18.853,6.63,18.853,20.746C161.101,74.593,153.866,81.223,142.248,81.223z M142.248,47.734
		c-6.201,0-9.471,4.304-9.471,12.825c0,8.437,3.27,12.743,9.471,12.743c6.196,0,9.47-4.307,9.47-12.743
		C151.718,52.038,148.444,47.734,142.248,47.734z"/>
	<path fill="#BFBC3D" d="M176.675,51.176c0,6.372,21.177,3.444,21.177,17.649c0,8.091-6.884,12.223-15.754,12.223
		c-7.4,0-13.085-3.356-15.233-6.026c-0.692-0.857-1.038-1.632-1.038-2.665c0-2.24,1.896-4.136,4.136-4.136
		c0.857,0,1.72,0.259,2.67,1.033c2.323,1.895,5.164,3.531,9.466,3.531c3.877,0,6.371-1.032,6.371-3.443
		c0-6.977-21.089-3.357-21.089-17.993c0-7.748,6.455-11.536,14.376-11.536c6.109,0,11.536,2.324,13.947,5.336
		c0.517,0.689,0.857,1.293,0.857,2.584c0,2.238-1.891,4.131-4.131,4.131c-1.203,0-1.979-0.517-2.928-1.206
		c-1.896-1.376-4.219-2.755-7.746-2.755C178.57,47.904,176.675,49.025,176.675,51.176z"/>
</g>
</svg>
